@startuml
class Student {
    - studentCode : String
}
class Course {
}
class Enrollment {
    - date : Date
}
class TeachingAssistant {
    - firstName : String
    - lastName : String
}
class Assignment {
    - role : String
    - details : String
    - responsibilities : String
}
class LabSection {
    - location : String
}
class TimeSlot {
    - startTime : Time
    - endTime : Time
}
Student "0..*" -- "1"  Enrollment : Enrollments
Course "1..*" *-- "1"  LabSection
LabSection "1" *-- "1"  TimeSlot
(TeachingAssistant, Course) .. Assignment
@enduml