@startuml
class Student {
    - studentCode : String
}
class Course {
    - courseName : String
}
class TeachingAssistant {
    - firstName : String
    - lastName : String
}
class LabSection {
    - location : String
    - startTime : Time
    - endTime : Time
}
Course "1" *-- "1..*"  LabSection
Course "*" -- "*"  Student : associates
TeachingAssistant "*" -- "*"  Course
class Enrollment {
    - enrollmentDate : Date
}
(Course, Student) .. Enrollment
class Assignment {
    - details : String
    - responsibilities : String
}
(TeachingAssistant, Course) .. Assignment
@enduml