@startuml
class Person {
    - name : String
    - identifier : String
}
abstract class Resource {
    - name : String
}
class File {
}
class Folder {
}
class User {
    - password : String
}
class AncestorDegree {
    - ancestor : Person
    - degree : Integer
}
Person "0..1" -- "0..*"  Person : ParentChild
Person "0..*" -- "1"  AncestorDegree : AncestorDegrees
User "0..*" -- "0..*"  Resource : Access
Folder "0..*" *-- "1"  Resource : Folder_Contains_Resource
Resource <|-- File
Resource <|-- Folder
Person <|-- User
@enduml