@startuml
abstract class Play {
    - name : String
    - timeOfDay : TimeOfDay
}
class Musical {
}
class Opera {
}
class Theater {
    - location : String
}
class Session {
    - scheduledDate : Date
    - startTime : Time
    - endTime : Time
}
class Author {
}
class Participant {
}
enum TimeOfDay {
    Day
    Night
}
abstract class  Person {
    - name : String
}
Session "1" -- "0..*"  Theater : Venue
Play "0..1" *-- "1"  Session
Play <|-- Musical
Play <|-- Opera
Play "1..*" -- "0..*"  Author : WrittenBy
Play "0..*" -- "0..*"  Participant : Involves
Author "0..1" -- "1"  Participant : SamePerson
Play "1..*" -- "1..*"  Theater : PerformedAt

Person <|-- Participant
Person <|-- Author
@enduml