@startuml
class Student {
    - studentCode : String
}
class Course {
}
class TeachingAssistant {
    - firstName : String
    - lastName : String
}
class Assignment {
    - role : String
    - details : String
    - responsibilities : String
}
class LabSection {
    - location : String
    - TimeSlot : string
}
Course "1" *-- "1"  LabSection
Course "1..*" -- "1..*"  Assignment : TaAssignments
TeachingAssistant "1..*" -- "1..*"  Assignment : Assignments
Course "*" -- "*"  Student : associates
class Enrollment {
    - date : Date
}
(Course, Student) .. Enrollment
@enduml