@startuml
abstract class Robot {
    - robotId : String
}
class CleaningRobot {
}
class TransportRobot {
}
class Task {
    - taskCode : String
}
enum LocationCategory {
    Corridor
    Room
}
Robot <|-- CleaningRobot
Robot <|-- TransportRobot
Robot "0..1" -- "0..*"  Task : AssignedTo
class TaskExecution {
    - referenceCode : String
    - startTime : DateTime
    - locationCategory : LocationCategory
}
(Robot, Task) .. TaskExecution
@enduml