@startuml
class Student {
    - studentCode : String
}
class Course {
    - courseName : String
}
class TeachingAssistant {
    - firstName : String
    - lastName : String
}
class Assignment {
    - details : String
    - responsibilities : String
}
class LabSection {
    - location : String
    - startTime : Time
    - endTime : Time
}
TeachingAssistant "1" -- "0..*"  Assignment : AssistsWith
Assignment "1" -- "1"  Course : AssignedToCourse
Course "1" *-- "1..*"  LabSection
Course "*" -- "*"  Student : associates
class Enrollment {
    - enrollmentDate : Date
}
(Course, Student) .. Enrollment
@enduml