@startuml
abstract class Robot {
    - id : String
}
class CleaningRobot {
}
class TransportRobot {
}
class Task {
    - code : String
}
class TaskExecution {
    - referenceCode : String
    - startTime : DateTime
    - locationCategory : LocationCategory
}
enum LocationCategory {
    corridor
    room
}
Robot "0..*" -- "1"  TaskExecution : Performs
Task "0..*" -- "1"  TaskExecution : IsExecutedBy
Robot <|-- CleaningRobot
Robot <|-- TransportRobot
@enduml